<svg width="16" height="16" viewBox="0 0 16 16" xmlns="http://www.w3.org/2000/svg">
  <path d="M4 1.5C4 1.22386 4.22386 1 4.5 1H6V0.5C6 0.223863 6.22386 0 6.5 0H9.5C9.77614 0 10 0.223863 10 0.5V1H11.5C11.7761 1 12 1.22386 12 1.5V13.5C12 13.7761 11.7761 14 11.5 14H4.5C4.22386 14 4 13.7761 4 13.5V1.5ZM5 2V13H11V2H9.5V2.5C9.5 2.77614 9.27614 3 9 3H7C6.72386 3 6.5 2.77614 6.5 2.5V2H5ZM7 1V2H9V1H7ZM6.5 5.5C6.5 5.22386 6.72386 5 7 5H9C9.27614 5 9.5 5.22386 9.5 5.5C9.5 5.77614 9.27614 6 9 6H7C6.72386 6 6.5 5.77614 6.5 5.5ZM6.5 8C6.5 7.72386 6.72386 7.5 7 7.5H9C9.27614 7.5 9.5 7.72386 9.5 8C9.5 8.27614 9.27614 8.5 9 8.5H7C6.72386 8.5 6.5 8.27614 6.5 8Z" fill="currentColor"/>
</svg>
